<svg width="353" height="295" viewBox="0 0 353 295" fill="none" xmlns="http://www.w3.org/2000/svg">
<path d="M-1 294C0.137588 240.391 13.9678 155.602 121.611 130.519C157.766 123.707 166.149 124.231 223.263 121.611C277.233 117.419 325.124 103.377 351.114 -1" stroke="#36D6AD" stroke-width="2"/>
<path d="M332.775 -1C325.545 35.2351 277.862 107.906 144.965 108.707C81.1337 110.505 8.02078 139.319 0.209914 236.389V272.517C-0.722722 259.536 -0.685294 247.514 0.209914 236.389V-1H332.775Z" fill="#36D6AD"/>
<path d="M332.775 -1C325.545 35.2351 277.862 107.906 144.965 108.707C73.8179 110.711 -8.86015 146.278 0.209914 272.517V-1H332.775Z" stroke="#36D6AD"/>
</svg>
